%TF.GenerationSoftware,KiCad,Pcbnew,9.0.6*%
%TF.CreationDate,2025-11-16T19:52:04+01:00*%
%TF.ProjectId,ruecklicht,72756563-6b6c-4696-9368-742e6b696361,rev?*%
%TF.SameCoordinates,Original*%
%TF.FileFunction,Paste,Top*%
%TF.FilePolarity,Positive*%
%FSLAX46Y46*%
G04 Gerber Fmt 4.6, Leading zero omitted, Abs format (unit mm)*
G04 Created by KiCad (PCBNEW 9.0.6) date 2025-11-16 19:52:04*
%MOMM*%
%LPD*%
G01*
G04 APERTURE LIST*
G04 Aperture macros list*
%AMRoundRect*
0 Rectangle with rounded corners*
0 $1 Rounding radius*
0 $2 $3 $4 $5 $6 $7 $8 $9 X,Y pos of 4 corners*
0 Add a 4 corners polygon primitive as box body*
4,1,4,$2,$3,$4,$5,$6,$7,$8,$9,$2,$3,0*
0 Add four circle primitives for the rounded corners*
1,1,$1+$1,$2,$3*
1,1,$1+$1,$4,$5*
1,1,$1+$1,$6,$7*
1,1,$1+$1,$8,$9*
0 Add four rect primitives between the rounded corners*
20,1,$1+$1,$2,$3,$4,$5,0*
20,1,$1+$1,$4,$5,$6,$7,0*
20,1,$1+$1,$6,$7,$8,$9,0*
20,1,$1+$1,$8,$9,$2,$3,0*%
G04 Aperture macros list end*
%ADD10RoundRect,0.090000X0.660000X0.360000X-0.660000X0.360000X-0.660000X-0.360000X0.660000X-0.360000X0*%
G04 APERTURE END LIST*
D10*
X139700000Y-100150000D03*
X139700000Y-96850000D03*
X134800000Y-96850000D03*
X134800000Y-100150000D03*
X159900000Y-86750000D03*
X159900000Y-83450000D03*
X155000000Y-83450000D03*
X155000000Y-86750000D03*
X139900000Y-73150000D03*
X139900000Y-69850000D03*
X135000000Y-69850000D03*
X135000000Y-73150000D03*
X159950000Y-73150000D03*
X159950000Y-69850000D03*
X155050000Y-69850000D03*
X155050000Y-73150000D03*
X149950000Y-73150000D03*
X149950000Y-69850000D03*
X145050000Y-69850000D03*
X145050000Y-73150000D03*
X149900000Y-86750000D03*
X149900000Y-83450000D03*
X145000000Y-83450000D03*
X145000000Y-86750000D03*
X169700000Y-100150000D03*
X169700000Y-96850000D03*
X164800000Y-96850000D03*
X164800000Y-100150000D03*
X159700000Y-100150000D03*
X159700000Y-96850000D03*
X154800000Y-96850000D03*
X154800000Y-100150000D03*
X179900000Y-86750000D03*
X179900000Y-83450000D03*
X175000000Y-83450000D03*
X175000000Y-86750000D03*
X169950000Y-73150000D03*
X169950000Y-69850000D03*
X165050000Y-69850000D03*
X165050000Y-73150000D03*
X139900000Y-86650000D03*
X139900000Y-83350000D03*
X135000000Y-83350000D03*
X135000000Y-86650000D03*
X169850000Y-86750000D03*
X169850000Y-83450000D03*
X164950000Y-83450000D03*
X164950000Y-86750000D03*
X149650000Y-100150000D03*
X149650000Y-96850000D03*
X144750000Y-96850000D03*
X144750000Y-100150000D03*
X179700000Y-100150000D03*
X179700000Y-96850000D03*
X174800000Y-96850000D03*
X174800000Y-100150000D03*
X179850000Y-73150000D03*
X179850000Y-69850000D03*
X174950000Y-69850000D03*
X174950000Y-73150000D03*
M02*
